<svg width="67" height="119" viewBox="0 0 67 119" fill="none" xmlns="http://www.w3.org/2000/svg">
<path d="M0.5 22H14V94H0.5V22Z" fill="url(#paint0_linear_0_1)" stroke="url(#paint1_linear_0_1)"/>
<path d="M38.5 1.5L14.5 22.5V94.5L38.5 117.5V1.5Z" fill="url(#paint2_radial_0_1)" stroke="url(#paint3_linear_0_1)"/>
<path d="M50 46C50 46 55 49 55 61C55 73 50 75.5 50 75.5" stroke="url(#paint4_linear_0_1)"/>
<path d="M55 36C55 36 60 40.7797 60 59.8983C60 79.0169 55 83 55 83" stroke="url(#paint5_linear_0_1)"/>
<path d="M61 22C61 22 66 29.9322 66 61.661C66 93.3898 61 100 61 100" stroke="url(#paint6_linear_0_1)"/>
<defs>
<linearGradient id="paint0_linear_0_1" x1="7.25" y1="22" x2="7.25" y2="94" gradientUnits="userSpaceOnUse">
<stop stop-color="#D9D9D9"/>
<stop offset="1" stop-color="#292929"/>
</linearGradient>
<linearGradient id="paint1_linear_0_1" x1="7.25" y1="22" x2="7.25" y2="94" gradientUnits="userSpaceOnUse">
<stop stop-color="#303030"/>
<stop offset="1" stop-color="#ABABAB"/>
</linearGradient>
<radialGradient id="paint2_radial_0_1" cx="0" cy="0" r="1" gradientUnits="userSpaceOnUse" gradientTransform="translate(9 59) scale(56.5 70.164)">
<stop stop-color="#D9D9D9"/>
<stop offset="1" stop-color="#111111"/>
</radialGradient>
<linearGradient id="paint3_linear_0_1" x1="26.5" y1="1.5" x2="26.5" y2="117.5" gradientUnits="userSpaceOnUse">
<stop stop-color="#303030"/>
<stop offset="0.448009" stop-color="#3B3B3B"/>
<stop offset="1" stop-color="#484848"/>
</linearGradient>
<linearGradient id="paint4_linear_0_1" x1="50.0769" y1="46" x2="50.0769" y2="75.5" gradientUnits="userSpaceOnUse">
<stop stop-color="#303030"/>
<stop offset="0.448009" stop-color="#3B3B3B"/>
<stop offset="1" stop-color="#484848"/>
</linearGradient>
<linearGradient id="paint5_linear_0_1" x1="55.0769" y1="36" x2="55.0769" y2="83" gradientUnits="userSpaceOnUse">
<stop stop-color="#303030"/>
<stop offset="0.448009" stop-color="#3B3B3B"/>
<stop offset="1" stop-color="#484848"/>
</linearGradient>
<linearGradient id="paint6_linear_0_1" x1="61.0769" y1="22" x2="61.0769" y2="100" gradientUnits="userSpaceOnUse">
<stop stop-color="#303030"/>
<stop offset="0.448009" stop-color="#3B3B3B"/>
<stop offset="1" stop-color="#484848"/>
</linearGradient>
</defs>
</svg>
